<svg xmlns="http://www.w3.org/2000/svg" width="14.41" height="14.409" viewBox="0 0 14.41 14.409"><defs><style>.a{fill:#0dd13a;stroke:#0dd13a;stroke-width:0.4px;}</style></defs><g transform="translate(0.2 0.2)"><path class="a" d="M14.794,18.588a3.794,3.794,0,1,1,3.794-3.794A3.8,3.8,0,0,1,14.794,18.588Zm0-7A3.21,3.21,0,1,0,18,14.794,3.214,3.214,0,0,0,14.794,11.584Z" transform="translate(-4.579 -4.579)"/><path class="a" d="M16.355,18.085a.292.292,0,0,1-.292-.292V15l-.815.815a.292.292,0,1,1-.413-.413l1.313-1.313a.29.29,0,0,1,.413,0L17.874,15.4a.292.292,0,1,1-.413.413L16.647,15v2.8A.292.292,0,0,1,16.355,18.085Z" transform="translate(-6.14 -5.827)"/><path class="a" d="M.876,14.009A.877.877,0,0,1,0,13.134V.876A.877.877,0,0,1,.876,0H8.635a.871.871,0,0,1,.619.256L11.418,2.42a.872.872,0,0,1,.256.619V4.962a.292.292,0,1,1-.584,0V3.039a.292.292,0,0,0-.085-.207L8.842.669A.3.3,0,0,0,8.635.584H.876A.292.292,0,0,0,.584.876V13.134a.292.292,0,0,0,.292.292H6.129a.292.292,0,1,1,0,.584Z"/></g></svg>