<svg xmlns="http://www.w3.org/2000/svg" width="16.615" height="16.617" viewBox="0 0 16.615 16.617"><defs><style>.a{fill:none;stroke:#fff;stroke-linecap:round;stroke-linejoin:round;stroke-width:1.5px;}</style></defs><g transform="translate(0 -0.006)"><g transform="translate(0.75 0.756)"><path class="a" d="M7.3,8.664a.657.657,0,0,1-.655.658H1.405A.656.656,0,0,1,.75,8.664V1.414A.657.657,0,0,1,1.406.756L6.646.765a.657.657,0,0,1,.654.658Z" transform="translate(-0.75 -0.756)"/><path class="a" d="M20.047,4.645a.651.651,0,0,1-.655.646H14.151a.65.65,0,0,1-.655-.646V1.411A.65.65,0,0,1,14.15.765L19.39.756a.652.652,0,0,1,.656.646Z" transform="translate(-4.932 -0.756)"/><path class="a" d="M7.3,20.393a.652.652,0,0,1-.656.648L1.4,21.032a.651.651,0,0,1-.654-.648V17.154a.651.651,0,0,1,.655-.648H6.646a.652.652,0,0,1,.655.648Z" transform="translate(-0.75 -5.924)"/><path class="a" d="M14.152,19.073a.657.657,0,0,1-.656-.659V11.165a.657.657,0,0,1,.655-.659h5.241a.657.657,0,0,1,.655.659V18.4a.658.658,0,0,1-.654.659Z" transform="translate(-4.932 -3.955)"/></g></g></svg>