<svg xmlns="http://www.w3.org/2000/svg" width="69" height="69" viewBox="0 0 69 69"><defs><style>.a{fill:none;stroke:#29489b;stroke-linecap:round;stroke-linejoin:round;stroke-width:1.5px;}</style></defs><g transform="translate(0.75 0.75)"><circle class="a" cx="18" cy="18" r="18" transform="translate(31.5 31.5)"/><path class="a" d="M17.25,14.25v18" transform="translate(32.25 26.25)"/><path class="a" d="M14.25,17.25h18" transform="translate(26.25 32.25)"/><path class="a" d="M23.25,59.25h-18a4.5,4.5,0,0,1-4.5-4.5V5.25A4.5,4.5,0,0,1,5.25.75H37.137a4.5,4.5,0,0,1,3.179,1.316l8.617,8.617a4.5,4.5,0,0,1,1.317,3.18V23.25" transform="translate(-0.75 -0.75)"/><path class="a" d="M6,5.625A1.125,1.125,0,1,1,4.875,6.75,1.125,1.125,0,0,1,6,5.625" transform="translate(7.5 9)"/><path class="a" d="M29.337,13.869,26.25,8.919a2.247,2.247,0,0,0-3.714-.042l-6,8.553-3.7-2.961a2.25,2.25,0,0,0-3.279.507L3.75,26.919h13.5" transform="translate(5.25 13.581)"/></g></svg>