<svg xmlns="http://www.w3.org/2000/svg" width="16.131" height="16.131" viewBox="0 0 16.131 16.131"><defs><style>.a{fill:none;stroke:#fff;stroke-linecap:round;stroke-linejoin:round;stroke-width:1.5px;}</style></defs><g transform="translate(0.75 0.75)"><path class="a" d="M18.65,13.6l-4.962,4.962-2.439.488.488-2.438L16.7,11.653a1.375,1.375,0,0,1,1.946,0l.005.005a1.375,1.375,0,0,1,0,1.946Z" transform="translate(-4.422 -4.422)"/><path class="a" d="M3.75,6.75h6.828" transform="translate(-1.799 -2.848)"/><path class="a" d="M3.75,11.25h6.828" transform="translate(-1.799 -4.422)"/><path class="a" d="M3.75,15.75H7.164" transform="translate(-1.799 -5.996)"/><path class="a" d="M5.139,13.43H1.725a.975.975,0,0,1-.975-.975V1.725A.975.975,0,0,1,1.725.75H8.637a.975.975,0,0,1,.689.285L11.194,2.9a.975.975,0,0,1,.285.689V5.627" transform="translate(-0.75 -0.75)"/></g></svg>