<svg xmlns="http://www.w3.org/2000/svg" width="17.245" height="17.245" viewBox="0 0 17.245 17.245"><defs><style>.a{fill:#f9ac19;stroke:#f9ac19;stroke-width:0.3px;}</style></defs><g transform="translate(0.15 0.15)"><path class="a" d="M1.764,17.533A1.767,1.767,0,0,1,0,15.768v-12A1.767,1.767,0,0,1,1.764,2h9.178a.353.353,0,1,1,0,.706H1.764A1.06,1.06,0,0,0,.705,3.765v12a1.06,1.06,0,0,0,1.059,1.059H12.355a1.06,1.06,0,0,0,1.059-1.059V7.648a.353.353,0,1,1,.706,0v8.119a1.768,1.768,0,0,1-1.765,1.765H1.764Z" transform="translate(0.001 -0.588)"/><path class="a" d="M9.124,10.751a.354.354,0,0,1-.328-.484l1-2.5a.341.341,0,0,1,.078-.119L17.111.414a1.412,1.412,0,0,1,2.411,1,1.4,1.4,0,0,1-.413,1L11.87,9.65a.359.359,0,0,1-.118.078l-2.5,1a.358.358,0,0,1-.131.025Zm.633-.986L11.422,9.1l6.189-6.19-1-1L10.423,8.1ZM18.11,2.41l.5-.5a.706.706,0,0,0-1-1l-.5.5Z" transform="translate(-2.578 0)"/></g></svg>