<svg xmlns="http://www.w3.org/2000/svg" width="17.025" height="16.561" viewBox="0 0 17.025 16.561"><defs><style>.a{fill:#0dd13a;stroke:#0dd13a;stroke-width:0.3px;}</style></defs><g transform="translate(0.15 0.15)"><path class="a" d="M15.626,22.066a4.322,4.322,0,0,1-1.363-.22A4.216,4.216,0,0,1,11.7,19.458v1.249a.349.349,0,0,1-.7,0v-2.37A.344.344,0,0,1,11.348,18h2.439a.339.339,0,1,1,0,.677H12.176a3.459,3.459,0,0,0,2.313,2.53,3.563,3.563,0,0,0,4.487-2.142.345.345,0,0,1,.262-.238.354.354,0,0,1,.339.113.331.331,0,0,1,.057.344,4.225,4.225,0,0,1-4.008,2.785Z" transform="translate(-3.334 -5.807)"/><path class="a" d="M17.449,15.058a.339.339,0,1,1,0-.677H19.06a3.457,3.457,0,0,0-2.312-2.53,3.6,3.6,0,0,0-2.7.168,3.444,3.444,0,0,0-1.786,1.974.351.351,0,0,1-.442.212.337.337,0,0,1-.218-.43,4.128,4.128,0,0,1,2.139-2.364,4.3,4.3,0,0,1,3.232-.2A4.218,4.218,0,0,1,19.539,13.6V12.349a.349.349,0,0,1,.7,0v2.37a.344.344,0,0,1-.348.339H17.449Z" transform="translate(-3.51 -3.544)"/><path class="a" d="M1.045,10.834A1.032,1.032,0,0,1,0,9.818V3.326a.984.984,0,0,1,.106-.438.994.994,0,0,1,.2-.28L2.686.3A1.058,1.058,0,0,1,3.425,0h3.6a1.053,1.053,0,0,1,.739.3l2.379,2.312a1.013,1.013,0,0,1,.218.313.979.979,0,0,1,.088.405V5.755a.349.349,0,0,1-.7,0V3.384H.7V9.818a.344.344,0,0,0,.348.339H5.924a.339.339,0,1,1,0,.677ZM9.264,2.707,7.275.775a.356.356,0,0,0-.247-.1H5.575V2.707Zm-4.386,0V.675H3.425a.35.35,0,0,0-.246.1L1.19,2.707Z" transform="translate(0 0.002)"/></g></svg>