<svg xmlns="http://www.w3.org/2000/svg" width="18.856" height="12.492" viewBox="0 0 18.856 12.492"><defs><style>.a{fill:none;stroke:#fff;stroke-linecap:round;stroke-linejoin:round;stroke-width:1.5px;}</style></defs><g transform="translate(0 -4.713)"><g transform="translate(0.75 5.463)"><circle class="a" cx="1.157" cy="1.157" r="1.157" transform="translate(12.727 8.678)"/><circle class="a" cx="1.157" cy="1.157" r="1.157" transform="translate(2.314 8.678)"/><path class="a" d="M14.25,15.984V8.463H18.3l1.157,2.893,1.22.814a1.157,1.157,0,0,1,.515.963v1.7a1.157,1.157,0,0,1-1.157,1.157H18.878" transform="translate(-3.837 -6.149)"/><path class="a" d="M11.163,17.184V13.713H.75v2.314a1.157,1.157,0,0,0,1.157,1.157H3.064" transform="translate(-0.75 -7.349)"/><path class="a" d="M14.849,18.213H6.75" transform="translate(-2.122 -8.378)"/><path class="a" d="M1.521,5.463h9.642v6.364H.75V6.234a.771.771,0,0,1,.771-.771Z" transform="translate(-0.75 -5.463)"/><path class="a" d="M14.25,5.463h3.471c2.314,0,1.736,2.314,1.736,2.314H18.3" transform="translate(-3.837 -5.463)"/><path class="a" d="M14.25,12.213h5.207" transform="translate(-3.837 -7.006)"/></g></g></svg>