<svg xmlns="http://www.w3.org/2000/svg" width="15.67" height="15.67" viewBox="0 0 15.67 15.67"><defs><style>.a{fill:none;stroke:#fff;stroke-linecap:round;stroke-linejoin:round;stroke-width:1.5px;}</style></defs><g transform="translate(0.27 0.27)"><path class="a" d="M13.71,6.15V1.42a.95.95,0,0,0-.95-.94H1.42a.95.95,0,0,0-.94.94v10.4a.95.95,0,0,0,.94.94H5.2"/><path class="a" d="M.48,3.31H13.71"/><path class="a" d="M10.87,7.09a3.78,3.78,0,1,0,3.78,3.78A3.78,3.78,0,0,0,10.87,7.09Z"/><path class="a" d="M12.56,9.77l-1.83,2.44a.47.47,0,0,1-.71.05l-.95-.94"/><path class="a" d="M6.62,6.62H2.84V8.98H5.2"/></g></svg>